<svg width="131" height="53" viewBox="0 0 131 53" fill="none" xmlns="http://www.w3.org/2000/svg">
<path d="M129.388 16.7725C130.188 16.5582 130.663 15.7357 130.449 14.9355L126.956 1.89517C126.742 1.09496 125.919 0.620012 125.119 0.834356C124.319 1.0487 123.844 1.87116 124.058 2.67138L127.163 14.2628L115.572 17.3676C114.771 17.5819 114.296 18.4044 114.511 19.2046C114.725 20.0048 115.548 20.4798 116.348 20.2654L129.388 16.7725ZM0.719089 50.043C0.288 50.7505 0.512017 51.6734 1.21944 52.1045C1.92687 52.5356 2.84982 52.3116 3.28091 51.6041L0.719089 50.043ZM129.75 14.0246C93.6384 -6.82869 32.3972 -1.94151 0.719089 50.043L3.28091 51.6041C34.0028 1.18868 93.3616 -3.52422 128.25 16.6226L129.75 14.0246Z" fill="#53EAF0"/>
</svg>
