<svg width="42" height="97" viewBox="0 0 42 97" fill="none" xmlns="http://www.w3.org/2000/svg">
<g clip-path="url(#clip0_337_329)">
<path fill-rule="evenodd" clip-rule="evenodd" d="M25.9903 0.312007C27.6027 -0.452437 29.5292 0.236122 30.293 1.84995C32.683 6.8994 38.0207 18.4339 39.2007 29.6338C39.7929 35.2547 39.3834 41.1629 36.6893 46.1972C36.2578 47.0036 35.7733 47.7769 35.2348 48.5142C35.323 55.1246 33.3516 61.9654 30.818 68.029C28.1841 74.3324 24.8382 80.04 22.1716 84.1502C20.8341 86.212 19.6575 87.8872 18.811 89.0523C18.3876 89.6351 18.0463 90.091 17.808 90.4048C17.689 90.5618 17.5954 90.6832 17.5305 90.7673L17.4544 90.8651L17.4329 90.8924L17.4265 90.9006L17.4244 90.9034C17.4235 90.9044 17.4229 90.9053 14.8871 88.9016L17.4229 90.9053C16.3172 92.3068 14.2856 92.5459 12.8851 91.4395C11.485 90.3332 11.2458 88.3006 12.3506 86.8991M12.3506 86.8991L12.3653 86.8803L12.4233 86.8058C12.4761 86.7376 12.557 86.6325 12.6633 86.4925C12.8759 86.2125 13.19 85.7931 13.5848 85.2496C14.3748 84.1621 15.4855 82.5813 16.7522 80.6288C19.2938 76.711 22.423 71.3585 24.8567 65.5342C26.3909 61.8624 27.6085 58.0973 28.2583 54.4482C26.2762 55.4932 24.0101 56.3251 21.4439 56.9162C13.937 58.6452 8.11053 56.8242 4.46745 52.6345C0.993982 48.64 0.0264202 43.0735 0.776692 38.2044C1.52226 33.3659 4.10414 28.4043 8.74467 26.0526C13.6311 23.5763 19.625 24.5494 25.8492 29.2714C29.0072 31.6671 31.2456 34.466 32.7426 37.5033C33.0514 35.2901 33.0445 32.8718 32.7749 30.312C31.7242 20.3419 26.8703 9.72454 24.4535 4.61823C23.6896 3.00441 24.3776 1.07645 25.9903 0.312007M28.6321 46.2949C28.1121 41.6791 26.1389 37.6058 21.9458 34.4248C16.9351 30.6234 13.6099 30.8357 11.6637 31.8218C9.47156 32.9328 7.70708 35.6574 7.16274 39.1901C6.6231 42.6921 7.42209 46.1817 9.34175 48.3894C11.0918 50.402 14.2851 51.9293 19.9948 50.6143C23.9481 49.7038 26.7064 48.1762 28.6321 46.2949Z" fill="#53EAF0"/>
<path fill-rule="evenodd" clip-rule="evenodd" d="M6.81878 70.9303C8.43324 70.17 10.3579 70.8634 11.1177 72.4793C11.5104 73.3144 11.7046 74.2891 11.8244 75.0837C11.9546 75.9473 12.0409 76.9256 12.1038 77.9284C12.2026 79.5035 12.2528 81.3126 12.3013 83.06C12.3141 83.5232 12.3269 83.982 12.3403 84.4309C12.4069 86.648 12.4916 88.6152 12.6733 90.0447C12.6927 90.1974 12.7123 90.336 12.7318 90.4613C15.5896 90.8024 19.2846 89.9478 23.557 88.3662C25.8581 87.5144 28.1484 86.5245 30.3881 85.5566C30.4761 85.5185 30.5642 85.4805 30.6521 85.4425C32.9241 84.4609 35.2016 83.4813 37.2078 82.812C38.9005 82.2473 40.7301 83.163 41.2944 84.8569C41.8586 86.551 40.9438 88.3822 39.2511 88.9469C37.5586 89.5115 35.5484 90.3706 33.2132 91.3795C33.11 91.4242 33.0062 91.4689 32.9018 91.5141C30.6992 92.4661 28.2661 93.5179 25.7986 94.4313C20.8061 96.2795 14.8371 97.9049 9.64292 96.4197C8.5817 96.1162 7.91831 95.4278 7.55507 94.9283C7.1913 94.4281 6.96874 93.904 6.82598 93.4961C6.54 92.6789 6.37471 91.736 6.26346 90.8609C6.03638 89.0747 5.94715 86.8037 5.88173 84.6253C5.86704 84.1362 5.85352 83.6504 5.84016 83.1704C5.79199 81.4393 5.74595 79.7843 5.65496 78.3335C5.59726 77.4135 5.52521 76.6459 5.43515 76.0485C5.35889 75.5427 5.28982 75.3047 5.27165 75.2421C5.26588 75.2223 5.26525 75.2202 5.27116 75.2328C4.51141 73.6169 5.2043 71.6908 6.81878 70.9303Z" fill="#53EAF0"/>
</g>
<defs>
<clipPath id="clip0_337_329">
<rect width="42" height="97" fill="white"/>
</clipPath>
</defs>
</svg>
