<svg xmlns="http://www.w3.org/2000/svg" width="93" height="60" fill="none"><g clip-path="url(#a)"><path fill="#fff" d="M6.897.05.07 47.935h7.222l1.894-13.558.036-.359.215-1.65.035 2.26.036.717.608 12.59H17.3l-1.966-17.54 6.364-15.243h-6.864l-4.29 11.657-.179.43-.465 1.578.25-1.721.072-.395L13.904.05H6.897Zm40.361 15.03L37.32 47.861h6.9l1.572-6.384h2.896l-.715 6.384h6.828L56.66 15.08h-9.402Zm-23.416.07L18.91 47.935h6.292l2.288-15.029.286-2.116-.036 1.65.036.395.68 15.1h6.863L40.25 15.15h-5.863l-2.145 13.558-.321 2.08.035-1.65-.035-.394-.465-13.594h-7.614Zm45.044 0-7.185.037c-1.575 9.846-2.335 16.119-3.861 24.39-.039.233-.092.48-.143.789-.103.635-.135.686-.25 1.614-.102.825-.138 1.442 0 2.26.131.786.234 1.235.643 1.9.353.564.645.86 1.18 1.256.553.41.95.565 1.608.825.67.264 1.83.402 2.86.466 1.365.088 2.746.033 3.969-.143 1.35-.194 2.433-.55 3.253-1.112.873-.597 1.638-1.291 2.073-2.224.318-.677.576-1.48.75-2.547.368-2.255.004.01.358-2.26l3.968-25.214h-7.078l-4.111 25.86s-.038.488-.107.79c-.076.345-.066.59-.25.896-.112.178-.182.277-.358.395a.905.905 0 0 1-.572.179c-.267.003-.449-.108-.643-.287-.21-.194-.27-.366-.322-.646-.052-.254 0-.645 0-.645l.143-.754 4.075-25.824Zm12.083 0-6.828 44.8h7.293l4.397-27.619h4.076l.822-5.451h-4.183l.93-6.528h4.29l.715-5.201H80.969Zm-29.636 3.695-.357 2.511-.107.646L49.33 35.99h-2.18l3.467-14.096.143-.61.572-2.439Z"/></g><defs><clipPath id="a"><path fill="#fff" d="M0 0h92.5v60H0z"/></clipPath></defs></svg>