<svg width="84" height="54" viewBox="0 0 84 54" fill="none" xmlns="http://www.w3.org/2000/svg">
<path fill-rule="evenodd" clip-rule="evenodd" d="M51.2285 29.905H57.624V47.1477H65.2738V52.6032H51.2285" fill="white"/>
<path fill-rule="evenodd" clip-rule="evenodd" d="M60.9478 29.905H68.347L72.2337 36.6137L75.9969 29.905H83.3952L75.2439 42.0057V52.6032H69.1617V42.0057" fill="white"/>
<path fill-rule="evenodd" clip-rule="evenodd" d="M0.251953 29.905H5.83253L11.8512 38.495L17.7462 29.905H23.3886V52.6032H17.7462V38.118L12.3526 45.3293H11.3497L5.83253 38.118V52.6032H0.251953" fill="white"/>
<path fill-rule="evenodd" clip-rule="evenodd" d="M24.6787 41.2535C24.6787 34.5699 30.3214 29.1528 37.2809 29.1528C44.2422 29.1528 49.8846 34.5699 49.8846 41.2535C49.8846 47.937 44.242 53.3557 37.2809 53.3557C30.3212 53.3557 24.6787 47.937 24.6787 41.2535ZM31.325 41.2535C31.325 37.6182 33.9915 34.6699 37.2809 34.6699C40.5719 34.6699 43.2384 37.6182 43.2384 41.2535C43.2384 44.8904 40.5719 47.8371 37.2809 47.8371C33.9915 47.8371 31.325 44.8904 31.325 41.2535Z" fill="white"/>
<path fill-rule="evenodd" clip-rule="evenodd" d="M15.196 1.18738H21.5916V23.8847H15.196" fill="white"/>
<path fill-rule="evenodd" clip-rule="evenodd" d="M73.4468 1.18738H79.9049V23.8847H73.4468" fill="white"/>
<path fill-rule="evenodd" clip-rule="evenodd" d="M0.251953 1.18738H6.04116V18.4928H13.6284V23.8847H0.251953" fill="white"/>
<path fill-rule="evenodd" clip-rule="evenodd" d="M50.3091 1.18738H56.642V15.4827C56.642 17.6296 58.4945 19.3704 60.7811 19.3704C63.0662 19.3704 64.9195 17.6296 64.9195 15.4827V1.18738H71.1888L71.2095 17.5518C71.2095 17.5518 71.1888 24.5749 60.7811 24.5749C50.3718 24.5749 50.3092 17.5518 50.3092 17.5518" fill="white"/>
<path fill-rule="evenodd" clip-rule="evenodd" d="M44.2054 26.1427L41.6498 23.3523C39.9512 24.1719 38.0319 24.6328 36.0016 24.6328C29.0404 24.6328 23.3979 19.2148 23.3979 12.5312C23.3979 5.84769 29.0406 0.428955 36.0016 0.428955C42.9621 0.428955 48.6045 5.84786 48.6045 12.5312C48.6045 15.558 47.447 18.3253 45.5342 20.4477L48.7831 23.8846M39.2216 13.8532L41.1338 15.797C41.6336 14.833 41.9589 13.7216 41.9589 12.5314C41.9589 8.89443 39.2915 5.94775 36.0021 5.94775C32.712 5.94775 30.0454 8.89443 30.0454 12.5314C30.0454 16.1675 32.712 19.115 36.0021 19.115C36.5749 19.115 37.1145 19.0102 37.6325 18.8373L35.0516 15.985" fill="white"/>
</svg>
