<svg xmlns="http://www.w3.org/2000/svg" width="92" height="60" fill="none"><path fill="#fff" fill-rule="evenodd" d="M4 0h84a4 4 0 0 1 4 4v52a4 4 0 0 1-4 4H4a4 4 0 0 1-4-4V4a4 4 0 0 1 4-4Z" clip-rule="evenodd"/><path fill="#5F8CF0" fill-rule="evenodd" d="M1.249 29.887V55.88c0 1.523 1.25 2.854 2.774 2.854l84.046.003c1.53 0 2.786-1.395 2.786-2.918V29.89" clip-rule="evenodd"/><path fill="#fff" fill-rule="evenodd" d="M57.228 32.905h6.396v17.243h7.65v5.455H57.228M66.948 32.905h7.399l3.887 6.709 3.763-6.709h7.398l-8.151 12.1v10.598h-6.082V45.006M6.252 32.905h5.58l6.02 8.59 5.894-8.59h5.643v22.698h-5.643V41.118l-5.393 7.211H17.35l-5.518-7.211v14.485h-5.58M30.679 44.254c0-6.684 5.642-12.101 12.602-12.101 6.961 0 12.604 5.417 12.604 12.1 0 6.684-5.643 12.103-12.604 12.103-6.96 0-12.602-5.419-12.602-12.102Z" clip-rule="evenodd"/><path fill="#5F8CF0" fill-rule="evenodd" d="M37.325 44.254c0-3.636 2.666-6.584 5.956-6.584 3.29 0 5.957 2.948 5.957 6.584 0 3.636-2.666 6.583-5.957 6.583-3.29 0-5.956-2.947-5.956-6.584Z" clip-rule="evenodd"/><path fill="#1956D6" fill-rule="evenodd" d="M4.133 1.077A2.885 2.885 0 0 0 1.25 3.962v25.925l89.606.003V3.964c0-1.592-1.314-2.891-2.911-2.891" clip-rule="evenodd"/><path fill="#fff" fill-rule="evenodd" d="M21.196 4.187h6.396v22.698h-6.396M79.447 4.187h6.458v22.698h-6.458M6.252 4.187h5.79v17.306h7.586v5.392H6.252M56.31 4.187h6.332v14.296c0 2.147 1.852 3.887 4.14 3.887 2.284 0 4.138-1.74 4.138-3.887V4.187h6.269l.02 16.365s-.02 7.023-10.428 7.023c-10.41 0-10.472-7.023-10.472-7.023M50.205 29.143l-2.555-2.79a12.972 12.972 0 0 1-5.648 1.28c-6.962 0-12.604-5.418-12.604-12.102 0-6.683 5.643-12.102 12.604-12.102 6.96 0 12.602 5.419 12.602 12.102 0 3.027-1.157 5.794-3.07 7.917l3.25 3.437" clip-rule="evenodd"/><path fill="#1956D6" fill-rule="evenodd" d="m45.222 16.853 1.912 1.944c.5-.964.825-2.075.825-3.266 0-3.637-2.668-6.583-5.957-6.583-3.29 0-5.957 2.946-5.957 6.583 0 3.636 2.667 6.584 5.957 6.584.573 0 1.112-.105 1.63-.278l-2.58-2.852" clip-rule="evenodd"/></svg>