<svg xmlns="http://www.w3.org/2000/svg" width="91" height="25" fill="none"><path fill="#ED1C24" d="M0 25h91V0H0v25Z"/><path fill="#fff" d="M25.863 3.846v17.308H20.16l.316-7.553-3.103 7.553H13.57l-1.085-7.663-1.841 7.648H4.79L9.574 3.846h6.203l.965 7.03 2.77-7.03h6.351ZM57.895 9.343l-2.526-.11-1.296 11.92h-6.126l1.395-11.897-2.327.087-3.91-5.497h15.326l-.535 5.497ZM65.977 4.542 64.8 15.07c-.037.636.246 1.272.8 1.542.572.218 1.284.13 1.73-.307.39-.347.534-.816.641-1.308l1.404-10.455H75.4L74.1 16.14c-.285 1.653-1.034 3.217-2.476 4.271-2.086 1.542-4.864 1.778-7.554 1.398-2.136-.4-4.576-1.818-5.272-4.034-.301-.798-.25-1.76-.25-2.632l1.248-10.6h6.181ZM81.953 16.132h4.95l-1.458 5.358H74.899L77.09 4.542h6.267l-1.404 11.59Z"/><path fill="#fff" fill-rule="evenodd" d="m41.29 5.661-.624-.49c-1.336-.672-2.85-.945-4.417-.98-3.634-.166-7.16 1.978-8.656 5.412-1.284 3.087-.785 7.1 1.674 9.481 2.777 2.797 7.516 3.596 11.06 1.887 2.905-1.362 4.989-4.395 5.04-7.642.038-.983.02-2.02-.39-2.835L41.29 5.66Zm-7.713 5.83c.677-1.218 1.941-1.854 3.278-1.67.8.145 1.637.708 1.994 1.508.536 1.05.499 2.651-.16 3.632-.64 1.054-1.728 1.669-2.956 1.56a2.871 2.871 0 0 1-2.263-1.56c-.606-1.037-.462-2.452.107-3.47Z" clip-rule="evenodd"/></svg>