<svg width="92" height="21" viewBox="0 0 92 21" fill="none" xmlns="http://www.w3.org/2000/svg">
<path d="M23.6108 0V19.3914H17.2201L17.5735 10.9297L14.0975 19.3914H9.83664L8.62044 10.8054L6.5581 19.3749H0L5.36062 0H12.3106L13.3917 7.87667L16.4945 0H23.6108Z" fill="white"/>
<path d="M59.5 6.1587L56.669 6.03438L55.2171 19.3914H48.3536L49.9163 6.06079L47.3091 6.1587L42.9287 0H60.1002L59.5 6.1587Z" fill="white"/>
<path d="M68.5539 0.780029L67.2367 12.5752C67.1959 13.2875 67.513 13.9999 68.1338 14.3033C68.7742 14.5474 69.5718 14.4487 70.0712 13.9582C70.5086 13.5704 70.6697 13.0445 70.7899 12.493L72.3632 0.780029H79.1112L77.6548 13.7729C77.3348 15.6253 76.4953 17.3774 74.8801 18.5586C72.5433 20.2861 69.4308 20.5502 66.4168 20.1247C64.0236 19.6758 61.2897 18.0875 60.51 15.6048C60.1722 14.7105 60.231 13.6337 60.231 12.6561L61.6286 0.780029H68.5539Z" fill="white"/>
<path d="M86.4534 13.7648H91.9997L90.3654 19.7686H78.55L81.0052 0.780029H88.0264L86.4534 13.7648Z" fill="white"/>
<path fill-rule="evenodd" clip-rule="evenodd" d="M40.8953 2.03367L40.1956 1.48386C38.6995 0.731019 37.0026 0.425319 35.2469 0.386536C31.1752 0.200606 27.2244 2.60286 25.5487 6.44978C24.1108 9.9083 24.6701 14.4048 27.4246 17.0723C30.5365 20.2057 35.8454 21.1012 39.8164 19.1865C43.0709 17.6603 45.4055 14.2623 45.4636 10.6241C45.505 9.52333 45.486 8.36098 45.0251 7.44787L40.8953 2.03367ZM32.254 8.56517C33.0124 7.20092 34.4285 6.488 35.9258 6.69389C36.8229 6.85644 37.7608 7.48723 38.1602 8.38323C38.7609 9.56041 38.7195 11.3541 37.9806 12.4526C37.2631 13.6337 36.0449 14.3227 34.669 14.2018C33.6114 14.0997 32.6125 13.4273 32.1337 12.4526C31.4548 11.2914 31.6158 9.70584 32.254 8.56517Z" fill="white"/>
</svg>
