<svg xmlns="http://www.w3.org/2000/svg" width="70" height="60" fill="none"><path fill="#E30613" d="M65.788 35.168c.561 0 1.123.139 1.685.416.561.278.983.694 1.263 1.249.281.555.422 1.11.422 1.665 0 .554-.14 1.11-.422 1.664-.28.555-.702.971-1.263 1.249a3.775 3.775 0 0 1-1.685.416 3.775 3.775 0 0 1-1.685-.416 2.739 2.739 0 0 1-1.264-1.249c-.281-.555-.422-1.11-.422-1.664 0-.555.14-1.11.422-1.665.28-.555.702-.971 1.264-1.249a3.775 3.775 0 0 1 1.685-.416Zm0 .555c-.492 0-.913.139-1.405.347-.42.208-.772.555-1.053 1.04-.28.486-.35.902-.35 1.388 0 .485.14.97.35 1.387.281.416.632.763 1.053 1.04.422.278.913.347 1.405.347.491 0 .983-.139 1.404-.347a3.74 3.74 0 0 0 1.053-1.04c.28-.416.351-.902.351-1.387 0-.486-.14-.972-.351-1.388a3.74 3.74 0 0 0-1.053-1.04c-.492-.208-.913-.347-1.404-.347Zm-1.475 4.647v-3.607h1.264c.421 0 .772 0 .913.07.21.07.35.208.491.346.14.14.14.347.14.555 0 .278-.07.486-.28.694-.21.208-.421.278-.773.347.14.07.211.139.281.208.14.139.351.347.562.694l.421.693h-.702l-.35-.555c-.282-.416-.492-.693-.633-.832-.14-.07-.28-.139-.491-.139h-.351v1.526h-.492Zm.562-2.011h.702c.351 0 .562-.07.702-.139.14-.07.21-.208.21-.416 0-.139 0-.208-.07-.278-.07-.069-.14-.138-.28-.208-.14-.07-.281-.07-.562-.07h-.702v1.11Z"/><path fill="#D8282F" d="M35.035 0 70 60H0L35.035 0Z"/><path fill="#F8AD00" d="M29.769 41.619h-2.387c-.351 0-.632.277-.703.624l-1.965 10.82c-.07.348.14.625.491.625h2.387c.351 0 .632-.277.702-.624l1.966-10.821c.07-.347-.14-.624-.491-.624ZM31.244 37.18l.35-2.081c.07-.347-.14-.625-.49-.625h-2.388c-.351 0-.632.278-.702.625l-.351 2.08c-.07.347.14.625.491.625h2.387c.281 0 .632-.278.703-.624ZM50.06 51.399c-1.755.07-2.738-.763-2.738-1.596 0-1.11 1.755-1.456 3.16-1.456 1.404.07 2.386.347 2.386 1.456 0 .833-1.334 1.527-2.808 1.596Zm6.88 1.665c.141-.416.282-1.526.282-1.526 0-.14.07-.625-.352-.694-.42-.139-1.334 0-1.334-.624 0-.208.773-3.815.843-4.995.07-1.179 0-2.705-1.896-3.468-.702-.277-6.95-.208-6.95-.208-.352 0-.703.208-.773.555l-.28 1.318c-.07.278.21.555.561.555h4.353c1.545 0 2.106.277 2.106.555 0 .277.07 1.734-.561 1.734-.562 0-8.355-1.526-8.355 3.538 0 .901-1.475 1.179-1.896.624-.421-.624-2.387-2.567-2.457-2.913 0-.347 3.37-2.081 4.072-4.925.07-.278.14-.971-.421-.971h-2.037c-.28 0-.631.069-.983.693-1.404 3.191-4.985 3.885-4.774 2.705.07-.416 4.213-22.96 4.213-22.96.07-.346-.14-.623-.492-.623h-2.387c-.35 0-.632.277-.702.624l-5.687 30.936c-.07.347.14.625.491.625h2.388c.35 0 .632-.278.702-.625l.702-3.468c.21-.486.491-.694 1.123-.694 2.317 0 3.581 4.995 5.968 4.995 1.475 0 3.16-1.04 3.51-1.04.703 0 1.054 1.04 3.37 1.04 2.037 0 3.581-.763 4.003-.763.421 0 1.334.485 1.755.555 1.123.346 1.755-.14 1.896-.555Z"/><path fill="#F8AD00" d="M12.708 53.896c.14-.07.28-.208.35-.208h.422c1.685.485 7.653 2.011 9.128-4.856l4.072-21.988c0-.278.491-3.052 4.423-1.734 1.334.416 1.404-.208 1.474-.347l.632-2.567c0-.763-.561-.555-1.685-.763-.842-.138-1.123.278-1.334.417-.21.069-.913-.07-1.896-.14-.631 0-4.212.417-4.914 3.885l-3.932 21.087c-.21.624-.14 6.59-7.021 3.26-1.194-.555-1.615-.277-1.755.347-.07.416-.422 2.566-.492 3.052 0 .208.14.486.492.486.35.069.912.138 1.263.208.281 0 .562 0 .773-.14Z"/></svg>